# xmcd
#
# Track frame offsets:
#	150
#	18968
#	36790
#	58878
#	79055
#	98613
#	119473
#	140360
#	158138
#	178173
#	200193
#	220358
#	235775
#	256843
#	274428
#	292940
#	312428
#	334785
#
# Disc length: 4699 seconds
#
# Revision: 32
# Processed by: cddbd v1.5.2PL0 Copyright (c) Steve Scherf et al.
# Submitted via: EasyCDDAExtractor 15.3.0.1
#
DISCID=0c125912
DTITLE=Whitney Houston - The Greatest Hits - CD 1 - Cool Down
DYEAR=2000
DGENRE=Pop
TTITLE0=You Give Good Love
TTITLE1=Saving All My Love For You
TTITLE2=Greatest Love Of All
TTITLE3=All At Once
TTITLE4=If You Say My Eyes Are Beautiful (Duet With Jermaine Jackson)
TTITLE5=Didn't We Almost Have It All
TTITLE6=Where Do Broken Hearts Go
TTITLE7=All The Man That I Need
TTITLE8=Run To You
TTITLE9=I Have Nothing
TTITLE10=I Will Always Love You
TTITLE11=Exhale (Shoop Shoop)
TTITLE12=Why Does It Hurt So Bad
TTITLE13=I Believe In You And Me
TTITLE14=Heartbreak Hotel (Featuring Faith Evans and Kelly Price)
TTITLE15=My Love Is Your Love
TTITLE16=Same Script, Different Cast (Duet With Deborah Cox)
TTITLE17=Could I Have This Kiss Forever (Duet With Enrique Iglesias) (Metro Mi
TTITLE17=x)
EXTD=
EXTT0=
EXTT1=
EXTT2=
EXTT3=
EXTT4=
EXTT5=
EXTT6=
EXTT7=
EXTT8=
EXTT9=
EXTT10=
EXTT11=
EXTT12=
EXTT13=
EXTT14=
EXTT15=
EXTT16=
EXTT17=
PLAYORDER=
